<svg width="20" height="12" viewBox="0 0 20 12" fill="none" xmlns="http://www.w3.org/2000/svg">
<path fill-rule="evenodd" clip-rule="evenodd" d="M1.0285 0C0.755723 0 0.494121 0.0902996 0.30124 0.251034C0.108359 0.411768 0 0.629769 0 0.857082C0 1.08439 0.108359 1.3024 0.30124 1.46313C0.494121 1.62386 0.755723 1.71416 1.0285 1.71416H18.513C18.7857 1.71416 19.0473 1.62386 19.2402 1.46313C19.4331 1.3024 19.5415 1.08439 19.5415 0.857082C19.5415 0.629769 19.4331 0.411768 19.2402 0.251034C19.0473 0.0902996 18.7857 0 18.513 0H1.0285ZM0 5.99957C0 5.77226 0.108359 5.55426 0.30124 5.39352C0.494121 5.23279 0.755723 5.14249 1.0285 5.14249H18.513C18.7857 5.14249 19.0473 5.23279 19.2402 5.39352C19.4331 5.55426 19.5415 5.77226 19.5415 5.99957C19.5415 6.22688 19.4331 6.44489 19.2402 6.60562C19.0473 6.76635 18.7857 6.85665 18.513 6.85665H1.0285C0.755723 6.85665 0.494121 6.76635 0.30124 6.60562C0.108359 6.44489 0 6.22688 0 5.99957ZM0 11.1429C0 10.9156 0.108359 10.6976 0.30124 10.5369C0.494121 10.3761 0.755723 10.2858 1.0285 10.2858H18.513C18.7857 10.2858 19.0473 10.3761 19.2402 10.5369C19.4331 10.6976 19.5415 10.9156 19.5415 11.1429C19.5415 11.3702 19.4331 11.5882 19.2402 11.749C19.0473 11.9097 18.7857 12 18.513 12H1.0285C0.755723 12 0.494121 11.9097 0.30124 11.749C0.108359 11.5882 0 11.3702 0 11.1429Z" fill="#333333"/>
</svg>
