<svg width="17" height="17" viewBox="0 0 17 17" fill="none" xmlns="http://www.w3.org/2000/svg">
<path fill-rule="evenodd" clip-rule="evenodd" d="M0 8.5C0 6.24566 0.895533 4.08365 2.48959 2.48959C4.08365 0.895533 6.24566 0 8.5 0C10.7543 0 12.9163 0.895533 14.5104 2.48959C16.1045 4.08365 17 6.24566 17 8.5C17 10.7543 16.1045 12.9163 14.5104 14.5104C12.9163 16.1045 10.7543 17 8.5 17C6.24566 17 4.08365 16.1045 2.48959 14.5104C0.895533 12.9163 0 10.7543 0 8.5ZM9.25 3.5C9.25 3.30109 9.17098 3.11032 9.03033 2.96967C8.88968 2.82902 8.69891 2.75 8.5 2.75C8.30109 2.75 8.11032 2.82902 7.96967 2.96967C7.82902 3.11032 7.75 3.30109 7.75 3.5V8.5C7.74995 8.62716 7.78222 8.75224 7.8438 8.86349C7.90537 8.97475 7.99422 9.06852 8.102 9.136L11.102 11.011C11.2707 11.1166 11.4744 11.1508 11.6683 11.1061C11.7643 11.084 11.855 11.0433 11.9353 10.9861C12.0155 10.9289 12.0837 10.8565 12.136 10.773C12.1883 10.6895 12.2236 10.5965 12.2399 10.4993C12.2562 10.4022 12.2532 10.3027 12.2311 10.2067C12.209 10.1107 12.1683 10.02 12.1111 9.93972C12.0539 9.85947 11.9815 9.79127 11.898 9.739L9.25 8.084V3.5Z" fill="#333333" fill-opacity="0.8"/>
</svg>
