<svg width="37" height="37" viewBox="0 0 37 37" fill="none" xmlns="http://www.w3.org/2000/svg">
<path d="M5.42 14.6907C5.30361 12.4698 6.07423 10.2936 7.56234 8.64093C9.05046 6.98821 11.1342 5.99434 13.3551 5.87795L23.5683 5.34269C23.858 5.32751 24.1419 5.42803 24.3574 5.62213C24.573 5.81623 24.7027 6.08802 24.7178 6.3777C24.733 6.66738 24.6325 6.95123 24.4384 7.1668C24.2443 7.38238 23.9725 7.51201 23.6828 7.52719L13.4696 8.06245C11.828 8.14848 10.2879 8.88308 9.18797 10.1047C8.08806 11.3262 7.51847 12.9347 7.6045 14.5762L8.14693 24.9264C8.16211 25.2161 8.0616 25.5 7.86749 25.7155C7.67339 25.9311 7.40161 26.0607 7.11192 26.0759C6.82224 26.0911 6.53839 25.9906 6.32282 25.7965C6.10725 25.6024 5.97761 25.3306 5.96243 25.0409L5.42 14.6907Z" fill="#333333" fill-opacity="0.5"/>
<path d="M27.3194 10.32C22.5461 10.0411 17.7566 10.2921 13.0386 11.0685C12.3858 11.1761 11.7886 11.5012 11.3439 11.9911C10.8993 12.481 10.6334 13.1069 10.5894 13.767C10.2804 18.5825 10.5338 23.4177 11.3444 28.1745C11.457 28.8265 11.7868 29.4213 12.2802 29.8621C12.7737 30.3029 13.4018 30.5637 14.0623 30.6023C18.81 30.8836 23.6508 30.6299 28.3431 29.8538C28.996 29.7465 29.5934 29.4214 30.0381 28.9314C30.4827 28.4415 30.7486 27.8155 30.7923 27.1553C31.1013 22.3398 30.8479 17.5046 30.0373 12.7478C29.9245 12.0959 29.5946 11.5012 29.1012 11.0605C28.6078 10.6198 27.9799 10.3588 27.3194 10.32Z" fill="#333333" fill-opacity="0.5"/>
</svg>
