<svg width="22" height="22" viewBox="0 0 22 22" fill="none" xmlns="http://www.w3.org/2000/svg">
<path d="M2.97919 8.25002C2.97919 6.85211 3.53451 5.51145 4.52298 4.52298C5.51145 3.53451 6.85211 2.97919 8.25002 2.97919H14.6786C14.8609 2.97919 15.0358 3.05162 15.1647 3.18055C15.2937 3.30948 15.3661 3.48435 15.3661 3.66669C15.3661 3.84902 15.2937 4.02389 15.1647 4.15282C15.0358 4.28175 14.8609 4.35419 14.6786 4.35419H8.25002C7.21678 4.35419 6.22586 4.76464 5.49525 5.49525C4.76464 6.22586 4.35419 7.21678 4.35419 8.25002V14.7648C4.35419 14.9471 4.28175 15.122 4.15282 15.2509C4.02389 15.3798 3.84902 15.4523 3.66669 15.4523C3.48435 15.4523 3.30948 15.3798 3.18055 15.2509C3.05162 15.122 2.97919 14.9471 2.97919 14.7648V8.25002Z" fill="#333333"/>
<path d="M7.89044 6.24896C10.8775 5.91687 13.8926 5.91687 16.8797 6.24896C17.2928 6.29512 17.6783 6.47961 17.9734 6.7724C18.2686 7.06525 18.4563 7.44938 18.5057 7.86224C18.858 10.8747 18.858 13.9181 18.5057 16.9306C18.4565 17.3436 18.2687 17.7285 17.9734 18.0214C17.6783 18.3141 17.2928 18.4979 16.8797 18.5439C13.9088 18.8766 10.8614 18.8766 7.89044 18.5439C7.47709 18.498 7.09096 18.3143 6.79572 18.0214C6.50049 17.7285 6.31365 17.3436 6.26447 16.9306C5.91216 13.9181 5.91213 10.8747 6.26447 7.86224C6.31385 7.4494 6.50152 7.06524 6.79669 6.7724C7.09188 6.47965 7.47726 6.29502 7.89044 6.24896ZM15.6014 9.89252C15.2255 9.59909 14.6843 9.65772 14.3807 10.0253L12.0799 12.8105L10.9031 11.9345C10.5246 11.6524 9.99021 11.7229 9.69806 12.0937C9.39495 12.4788 9.46922 13.038 9.86212 13.331L12.3826 15.2099L15.7391 11.1464C16.0543 10.7642 15.9919 10.1974 15.6014 9.89252Z" fill="#333333"/>
</svg>
