<svg width="24" height="24" viewBox="0 0 24 24" fill="none" xmlns="http://www.w3.org/2000/svg">
<g clip-path="url(#clip0_653_25231)">
<path d="M2.81301 15.4667L1.54635 20.9333C1.50265 21.1332 1.50415 21.3403 1.55073 21.5394C1.59731 21.7386 1.6878 21.9249 1.81559 22.0846C1.94337 22.2444 2.10523 22.3735 2.28933 22.4627C2.47343 22.5519 2.67513 22.5988 2.87968 22.6C2.97499 22.6096 3.07103 22.6096 3.16635 22.6L8.66635 21.3333L19.2263 10.8133L13.333 4.93335L2.81301 15.4667Z" fill="#333333"/>
<path d="M22.5471 5.54661L18.6138 1.61327C18.3552 1.35598 18.0053 1.21155 17.6405 1.21155C17.2757 1.21155 16.9257 1.35598 16.6671 1.61327L14.4805 3.79994L20.3671 9.68661L22.5538 7.49994C22.6818 7.37133 22.7831 7.21874 22.852 7.05092C22.921 6.88309 22.9561 6.70332 22.9555 6.52189C22.9549 6.34046 22.9185 6.16093 22.8484 5.99358C22.7784 5.82623 22.676 5.67434 22.5471 5.54661Z" fill="#333333"/>
</g>
<defs>
<clipPath id="clip0_653_25231">
<rect width="24" height="24" fill="white"/>
</clipPath>
</defs>
</svg>
