<svg width="130" height="20" viewBox="0 0 130 20" fill="none" xmlns="http://www.w3.org/2000/svg">
<path d="M113.866 19.6605L119.444 12.539L113.889 5.37842H118.164L121.799 10.2304H121.913L125.491 5.37842H129.64L124.085 12.4347L129.629 19.6605H125.377L121.73 14.7433H121.616L118.004 19.6605H113.866Z" fill="white"/>
<path d="M106.332 19.9998C104.731 19.9998 103.337 19.6955 102.148 19.0868C100.967 18.4782 100.049 17.6173 99.3932 16.5043C98.7378 15.3826 98.4102 14.0609 98.4102 12.5393V12.5001C98.4102 10.9784 98.7378 9.66111 99.3932 8.54811C100.049 7.42641 100.967 6.56123 102.148 5.95256C103.337 5.34389 104.731 5.03955 106.332 5.03955C107.924 5.03955 109.311 5.34389 110.493 5.95256C111.681 6.56123 112.604 7.42641 113.259 8.54811C113.914 9.66111 114.242 10.9784 114.242 12.5001V12.5393C114.242 14.0609 113.914 15.3826 113.259 16.5043C112.611 17.6173 111.693 18.4782 110.504 19.0868C109.323 19.6955 107.932 19.9998 106.332 19.9998ZM106.332 16.9739C107.17 16.9739 107.902 16.8 108.527 16.4521C109.159 16.1043 109.651 15.6 110.001 14.9392C110.352 14.2783 110.527 13.4784 110.527 12.5393V12.5001C110.527 11.5697 110.352 10.7741 110.001 10.1133C109.651 9.45242 109.159 8.94809 108.527 8.60028C107.902 8.24377 107.17 8.06552 106.332 8.06552C105.494 8.06552 104.758 8.24377 104.126 8.60028C103.493 8.94809 103.002 9.45242 102.651 10.1133C102.3 10.7741 102.125 11.5697 102.125 12.5001V12.5393C102.125 13.4784 102.3 14.2783 102.651 14.9392C103.002 15.6 103.489 16.1043 104.114 16.4521C104.747 16.8 105.486 16.9739 106.332 16.9739Z" fill="white"/>
<path d="M90.7266 19.9607C89.8579 19.9607 89.0691 19.8433 88.3604 19.6085C87.6593 19.3651 87.0497 19.026 86.5315 18.5912C86.0133 18.1477 85.5941 17.6347 85.2741 17.0521H85.1712V19.6607H81.5247V0.148438H85.1712V7.98726H85.2741C85.5865 7.41337 86.0018 6.90904 86.52 6.47428C87.0459 6.03082 87.6593 5.68735 88.3604 5.44388C89.0691 5.19172 89.8579 5.06564 90.7266 5.06564C92.0907 5.06564 93.2757 5.37867 94.2816 6.00473C95.2875 6.6221 96.0648 7.49163 96.6135 8.61332C97.1622 9.72632 97.4366 11.0219 97.4366 12.5001V12.5262C97.4366 14.0044 97.1584 15.3044 96.6021 16.4261C96.0534 17.5391 95.2761 18.4086 94.2702 19.0347C93.2719 19.652 92.0907 19.9607 90.7266 19.9607ZM89.4692 16.9086C90.3532 16.9086 91.1114 16.7347 91.744 16.3869C92.3841 16.0304 92.8756 15.5261 93.2185 14.8739C93.5615 14.2218 93.7329 13.4436 93.7329 12.5393V12.5001C93.7329 11.5958 93.5615 10.8176 93.2185 10.1654C92.8756 9.51329 92.3841 9.01331 91.744 8.66549C91.1114 8.30899 90.3532 8.13073 89.4692 8.13073C88.5852 8.13073 87.8193 8.31333 87.1716 8.67854C86.5315 9.03505 86.0361 9.53937 85.6856 10.1915C85.335 10.8437 85.1597 11.6176 85.1597 12.5132V12.5393C85.1597 13.4262 85.335 14.2001 85.6856 14.8609C86.0361 15.5131 86.5315 16.0174 87.1716 16.3739C87.8193 16.7304 88.5852 16.9086 89.4692 16.9086Z" fill="white"/>
<path d="M60.9819 19.6608L56.3524 5.36572H60.0332L63.0166 15.8262H63.131L66.5488 5.36572H69.9666L73.3845 15.8262H73.4988L76.4823 5.36572H80.1516L75.5221 19.6608H71.6584L68.3092 9.5786H68.1834L64.8342 19.6608H60.9819Z" fill="white"/>
<path d="M48.0871 19.9998C46.4868 19.9998 45.0922 19.6955 43.9034 19.0868C42.7222 18.4782 41.8039 17.6173 41.1485 16.5043C40.4932 15.3826 40.1655 14.0609 40.1655 12.5393V12.5001C40.1655 10.9784 40.4932 9.66111 41.1485 8.54811C41.8039 7.42641 42.7222 6.56123 43.9034 5.95256C45.0922 5.34389 46.4868 5.03955 48.0871 5.03955C49.6798 5.03955 51.0667 5.34389 52.2479 5.95256C53.4368 6.56123 54.3589 7.42641 55.0142 8.54811C55.6696 9.66111 55.9973 10.9784 55.9973 12.5001V12.5393C55.9973 14.0609 55.6696 15.3826 55.0142 16.5043C54.3665 17.6173 53.4482 18.4782 52.2594 19.0868C51.0782 19.6955 49.6874 19.9998 48.0871 19.9998ZM48.0871 16.9739C48.9254 16.9739 49.6569 16.8 50.2818 16.4521C50.9143 16.1043 51.4059 15.6 51.7564 14.9392C52.107 14.2783 52.2822 13.4784 52.2822 12.5393V12.5001C52.2822 11.5697 52.107 10.7741 51.7564 10.1133C51.4059 9.45242 50.9143 8.94809 50.2818 8.60028C49.6569 8.24377 48.9254 8.06552 48.0871 8.06552C47.2488 8.06552 46.5134 8.24377 45.8809 8.60028C45.2484 8.94809 44.7569 9.45242 44.4063 10.1133C44.0558 10.7741 43.8805 11.5697 43.8805 12.5001V12.5393C43.8805 13.4784 44.0558 14.2783 44.4063 14.9392C44.7569 15.6 45.2446 16.1043 45.8695 16.4521C46.502 16.8 47.2412 16.9739 48.0871 16.9739Z" fill="white"/>
<path d="M20.6973 19.6608L16.0678 5.36572H19.7486L22.732 15.8262H22.8463L26.2642 5.36572H29.682L33.0999 15.8262H33.2142L36.1977 5.36572H39.867L35.2375 19.6608H31.3738L28.0245 9.5786H27.8988L24.5495 19.6608H20.6973Z" fill="white"/>
<path d="M5.10742 10.9927V5.12354H7.77344C8.52214 5.12354 9.0918 5.29606 9.48242 5.64111C9.87956 5.98617 10.0781 6.47119 10.0781 7.09619V7.10596C10.0781 7.45101 9.98372 7.77653 9.79492 8.08252C9.61263 8.382 9.35221 8.60335 9.01367 8.74658L10.2637 10.9927H8.57422L7.49023 8.99072C7.48372 8.99072 7.4707 8.99072 7.45117 8.99072C7.43815 8.99072 7.42513 8.99072 7.41211 8.99072H6.61133V10.9927H5.10742ZM6.61133 7.88721H7.59766C7.89062 7.88721 8.11849 7.81885 8.28125 7.68213C8.45052 7.5389 8.53516 7.35335 8.53516 7.12549V7.11572C8.53516 6.88786 8.45052 6.70231 8.28125 6.55908C8.11198 6.41585 7.88086 6.34424 7.58789 6.34424H6.61133V7.88721ZM11.9434 8.01416C11.9434 7.19385 11.748 6.45166 11.3574 5.7876C10.9668 5.11702 10.4362 4.58643 9.76562 4.1958C9.10156 3.80518 8.35938 3.60986 7.53906 3.60986H7.4707C6.65039 3.60986 5.90495 3.80518 5.23438 4.1958C4.5638 4.58643 4.0332 5.11702 3.64258 5.7876C3.25195 6.45166 3.05664 7.19385 3.05664 8.01416V8.08252C3.05664 8.90934 3.25195 9.65804 3.64258 10.3286C4.0332 10.9927 4.5638 11.52 5.23438 11.9106C5.90495 12.3013 6.65039 12.4966 7.4707 12.4966H7.53906C8.35938 12.4966 9.10156 12.3013 9.76562 11.9106C10.4362 11.52 10.9668 10.9927 11.3574 10.3286C11.748 9.65804 11.9434 8.90934 11.9434 8.08252V8.01416ZM13.3203 8.01416V8.08252C13.3203 8.89632 13.1706 9.65479 12.8711 10.3579C12.5781 11.0545 12.168 11.6665 11.6406 12.1938C11.1133 12.7212 10.498 13.1346 9.79492 13.4341C9.09831 13.7336 8.34635 13.8833 7.53906 13.8833H7.4707C6.66341 13.8833 5.9082 13.7336 5.20508 13.4341C4.50195 13.1346 3.88672 12.7212 3.35938 12.1938C2.83203 11.6665 2.41862 11.0545 2.11914 10.3579C1.82617 9.65479 1.67969 8.89632 1.67969 8.08252V8.01416C1.67969 7.20687 1.82617 6.45492 2.11914 5.7583C2.41862 5.05518 2.83203 4.43994 3.35938 3.9126C3.88672 3.38525 4.50195 2.9751 5.20508 2.68213C5.9082 2.38265 6.66341 2.23291 7.4707 2.23291H7.53906C8.34635 2.23291 9.09831 2.38265 9.79492 2.68213C10.498 2.9751 11.1133 3.38525 11.6406 3.9126C12.168 4.43994 12.5781 5.05518 12.8711 5.7583C13.1706 6.45492 13.3203 7.20687 13.3203 8.01416Z" fill="white"/>
</svg>
