<svg width="32" height="32" viewBox="0 0 32 32" fill="none" xmlns="http://www.w3.org/2000/svg">
<path d="M32 25.952C32 29.84 29.84 32 25.952 32H6.048C2.16 32 0 29.84 0 25.952V6.048C0 2.16 2.16 0 6.048 0H25.96C29.84 0 32 2.16 32 6.048V25.952Z" fill="#FFE600"/>
<path d="M20.576 14.4396V11.3836L21.68 10.2796V12.9276L22.64 13.8876L26.504 10.0236L27.456 10.9756C27.448 10.2556 27.304 8.16759 25.536 6.43159C23.632 4.59159 21.568 5.42359 20.864 6.12759L17.008 9.98359L17.992 10.9676L16 12.9756L14.008 10.9836L14.992 9.99959L11.136 6.14359C10.432 5.43959 8.36795 4.60759 6.46395 6.44759C4.69595 8.18359 4.55195 10.2716 4.54395 10.9916L5.49595 10.0396L9.35995 13.9036L10.32 12.9436V10.2956L11.424 11.3996V14.4556L12.976 15.9996L5.32795 23.6476L8.35195 26.6636L16 19.0236L23.648 26.6716L26.672 23.6556L19.024 15.9996L20.576 14.4396Z" fill="#2B2D34"/>
</svg>
