<svg width="17" height="17" viewBox="0 0 17 17" fill="none" xmlns="http://www.w3.org/2000/svg">
<path d="M8.5 0C3.81315 0 0 3.81315 0 8.5C0 13.1869 3.81315 17 8.5 17C13.1869 17 17 13.1869 17 8.5C17 3.81315 13.1869 0 8.5 0ZM13.4038 7.44363C13.4038 7.53705 13.3667 7.62665 13.3007 7.69271C13.2346 7.75878 13.145 7.79589 13.0516 7.79589H10.6185C10.5488 7.796 10.4806 7.77541 10.4226 7.73673C10.3647 7.69805 10.3195 7.64302 10.2928 7.57863C10.2662 7.51423 10.2592 7.44337 10.2729 7.37503C10.2866 7.30669 10.3202 7.24395 10.3696 7.19476L11.2756 6.28877L11.0467 6.02274C10.6374 5.59779 10.1291 5.28089 9.56738 5.10038C9.00563 4.91988 8.4079 4.88138 7.82764 4.98835C7.24738 5.09531 6.70267 5.3444 6.2422 5.71334C5.78174 6.08228 5.41987 6.55958 5.18896 7.10256C4.95805 7.64553 4.86529 8.23727 4.91897 8.82486C4.97265 9.41245 5.1711 9.97758 5.49657 10.4697C5.82205 10.9619 6.26441 11.3657 6.7841 11.6451C7.3038 11.9245 7.88463 12.0708 8.47466 12.0708C9.21309 12.0701 9.93322 11.841 10.5362 11.4148C11.1393 10.9886 11.5957 10.3863 11.8428 9.69041C11.8714 9.60937 11.9157 9.53477 11.9732 9.47086C12.0307 9.40695 12.1001 9.35499 12.1777 9.31793C12.2552 9.28088 12.3393 9.25946 12.4251 9.2549C12.511 9.25034 12.5968 9.26273 12.6779 9.29136C12.7589 9.31999 12.8335 9.3643 12.8974 9.42176C12.9613 9.47922 13.0133 9.54871 13.0503 9.62625C13.0874 9.7038 13.1088 9.78788 13.1134 9.87371C13.1179 9.95953 13.1056 10.0454 13.0769 10.1264C12.7789 10.9698 12.2548 11.7151 11.5618 12.2807C10.8689 12.8464 10.0338 13.2106 9.14777 13.3337C8.26178 13.4568 7.359 13.334 6.5381 12.9786C5.7172 12.6233 5.00978 12.0492 4.49315 11.3189C3.97651 10.5887 3.67056 9.73053 3.60871 8.83817C3.54686 7.94581 3.73151 7.05362 4.14247 6.25911C4.55343 5.4646 5.17489 4.79835 5.93892 4.33317C6.70296 3.868 7.58016 3.6218 8.47466 3.62149C9.13483 3.61897 9.78852 3.75164 10.3955 4.01133C11.0024 4.27101 11.5498 4.65222 12.0038 5.13147L12.0267 5.1568L12.2028 5.36113L12.8027 4.76123C12.8347 4.72854 12.8728 4.70253 12.9149 4.68471C12.957 4.66689 13.0022 4.65762 13.0479 4.65743C13.0944 4.65705 13.1406 4.6659 13.1836 4.68346C13.2267 4.70103 13.2659 4.72696 13.2988 4.75975C13.3318 4.79255 13.358 4.83156 13.3758 4.87453C13.3936 4.9175 13.4027 4.96358 13.4026 5.0101L13.4038 7.44363Z" fill="#333333" fill-opacity="0.8"/>
</svg>
