<svg width="17" height="17" viewBox="0 0 17 17" fill="none" xmlns="http://www.w3.org/2000/svg">
<path fill-rule="evenodd" clip-rule="evenodd" d="M8.5 17C3.80552 17 0 13.1945 0 8.5C0 3.80552 3.80552 0 8.5 0C13.1945 0 17 3.80552 17 8.5C17 13.1945 13.1945 17 8.5 17ZM7.51542 5.60681H8.69833C9.78527 5.60681 10.3314 6.17596 10.3314 7.07696C10.3314 7.98362 9.78527 8.55844 8.69231 8.55844H7.51542V5.60681ZM9.00221 9.57242C10.568 9.57242 11.599 8.51346 11.599 7.07129C11.599 5.62381 10.5906 4.55352 9.04187 4.55352H6.27052V8.93031H5.16021V9.57242H6.27017V10.665H5.16021V11.3015H6.27017V12.5294H7.51471V11.3015H9.77358V10.665H7.51471V9.57242H9.00221Z" fill="#333333" fill-opacity="0.8"/>
</svg>
