<svg width="12" height="14" viewBox="0 0 12 14" fill="none" xmlns="http://www.w3.org/2000/svg">
<path d="M1.11072 13.035L5.88462 10.4184L10.6512 13.023C10.7625 13.0506 10.8898 13.0657 11.0201 13.0667C11.1504 13.0677 11.2789 13.0545 11.3927 13.0286C11.5064 13.0026 11.6012 12.9648 11.6674 12.919C11.7335 12.8733 11.7687 12.8211 11.7692 12.768L11.7692 0.599987C11.7692 0.440861 11.6142 0.288252 11.3383 0.175732C11.0624 0.0632127 10.6883 -4.72511e-08 10.2981 -6.43062e-08L1.47116 -4.50143e-07C1.08098 -4.67198e-07 0.706788 0.0632123 0.430893 0.175732C0.154999 0.288251 2.55082e-06 0.44086 2.54386e-06 0.599987L2.01159e-06 12.777C2.4651e-05 12.8299 0.0344109 12.8819 0.0996672 12.9277C0.164923 12.9735 0.258724 13.0114 0.371542 13.0376C0.48436 13.0638 0.612176 13.0774 0.742003 13.0769C0.871831 13.0764 0.999046 13.062 1.11072 13.035ZM3.54548 3.15293L3.54548 2.81694L6.73789 1.83896L3.53813 1.83896L3.53813 1.49997L8.09135 1.49997L8.09135 1.83896L4.89159 2.81994L8.09135 2.81994L8.09135 3.15593L3.54548 3.15293ZM7.35577 5.05189L7.35577 3.99291L6.25976 3.99291L6.25976 4.95289L5.52419 4.95289L5.52419 3.99291L4.33991 3.99291L4.33991 5.05189L3.60433 5.05189L3.60433 3.65392L8.09135 3.65392L8.09135 5.04889L7.35577 5.05189ZM3.56019 7.53884L3.56019 7.19984L6.93649 6.73485L3.54548 6.26986L3.54548 5.93387L8.09135 5.33388L8.09135 5.69988L4.83274 6.09587L8.09135 6.55186L8.09135 6.91785L4.83274 7.35584L8.09135 7.75483L8.09135 8.12382L3.56019 7.53884Z" fill="#333333" fill-opacity="0.8"/>
<path d="M3.54548 3.15293L3.54548 2.81694L6.73789 1.83896L3.53813 1.83896L3.53813 1.49997L8.09135 1.49997L8.09135 1.83896L4.89159 2.81994L8.09135 2.81994L8.09135 3.15593L3.54548 3.15293Z" fill="#333333" fill-opacity="0.8"/>
<path d="M7.35577 5.05189L7.35577 3.99291L6.25976 3.99291L6.25976 4.95289L5.52419 4.95289L5.52419 3.99291L4.33991 3.99291L4.33991 5.05189L3.60433 5.05189L3.60433 3.65392L8.09135 3.65392L8.09135 5.04889L7.35577 5.05189Z" fill="#333333" fill-opacity="0.8"/>
<path d="M3.56019 7.53884L3.56019 7.19984L6.93649 6.73485L3.54548 6.26986L3.54548 5.93387L8.09135 5.33388L8.09135 5.69988L4.83274 6.09587L8.09135 6.55186L8.09135 6.91785L4.83274 7.35584L8.09135 7.75483L8.09135 8.12382L3.56019 7.53884Z" fill="#333333" fill-opacity="0.8"/>
</svg>
