<svg width="32" height="32" viewBox="0 0 32 32" fill="none" xmlns="http://www.w3.org/2000/svg">
<path d="M28.2812 6.21606C29.0311 7.19874 29.6661 8.26633 30.173 9.39741L15.7916 20.1414L9.78125 16.3231V11.7294L15.7916 15.5477L28.2812 6.21606Z" fill="#21A038"/>
<path d="M3.64741 15.9995C3.64741 15.7933 3.65237 15.5886 3.66229 15.385L0.0198374 15.2041C0.00743972 15.468 4.40174e-06 15.7343 4.40174e-06 16.0032C-0.00154536 18.1038 0.406151 20.184 1.19971 22.1245C1.99327 24.0651 3.15707 25.8277 4.62436 27.3113L7.20804 24.6941C6.07858 23.5541 5.18257 22.199 4.57152 20.7069C3.96046 19.2148 3.64642 17.615 3.64741 15.9995Z" fill="url(#paint0_linear_594_21046)"/>
<path d="M15.7882 3.69619C15.9915 3.69619 16.1935 3.70373 16.3944 3.71378L16.5766 0.0210552C16.3155 0.00849065 16.0527 0.00220913 15.7882 0.00220913C13.7145 -0.000353734 11.6608 0.412233 9.74495 1.21628C7.82907 2.02032 6.08879 3.19999 4.62402 4.68755L7.20771 7.306C8.33266 6.16096 9.66986 5.25257 11.1424 4.63307C12.615 4.01358 14.1938 3.69517 15.7882 3.69619Z" fill="url(#paint1_linear_594_21046)"/>
<path d="M15.7887 28.3038C15.5854 28.3038 15.3833 28.3038 15.1813 28.2875L14.999 31.979C15.261 31.9924 15.5243 31.9991 15.7887 31.9991C17.8616 32.0013 19.9143 31.5884 21.8291 30.7841C23.744 29.9799 25.4831 28.8 26.9468 27.3125L24.368 24.6953C23.2429 25.8397 21.9058 26.7476 20.4336 27.3669C18.9613 27.9862 17.3828 28.3046 15.7887 28.3038Z" fill="url(#paint2_linear_594_21046)"/>
<path d="M22.6328 5.84255L25.7024 3.54951C22.8967 1.24701 19.3944 -0.00639151 15.7842 2.45103e-05V3.69526C18.2289 3.69219 20.6168 4.44093 22.6328 5.84255Z" fill="url(#paint3_linear_594_21046)"/>
<path d="M31.5764 16.0001C31.5783 15.0388 31.4954 14.0791 31.3284 13.1328L27.9302 15.6708C27.9302 15.7802 27.9302 15.8895 27.9302 16.0001C27.9311 17.7192 27.5755 19.4194 26.8865 20.9904C26.1975 22.5614 25.1904 23.9681 23.9307 25.1194L26.3817 27.8648C28.0195 26.3664 29.3283 24.5358 30.2232 22.4919C31.1181 20.4479 31.5791 18.2362 31.5764 16.0001Z" fill="#21A038"/>
<path d="M15.7882 28.3043C14.0918 28.3049 12.414 27.9444 10.8637 27.2462C9.31346 26.548 7.92515 25.5275 6.78871 24.251L4.08105 26.7337C5.55943 28.3938 7.36559 29.7204 9.38242 30.6276C11.3992 31.5347 13.5817 32.0021 15.7882 31.9995V28.3043Z" fill="url(#paint4_linear_594_21046)"/>
<path d="M7.64693 6.88013L5.19714 4.13477C3.55887 5.63293 2.24961 7.46336 1.35428 9.50733C0.458958 11.5513 -0.00244096 13.7631 9.71133e-06 15.9995H3.64742C3.64667 14.2804 4.00232 12.5802 4.69129 11.0092C5.38028 9.43827 6.38724 8.03151 7.64693 6.88013Z" fill="url(#paint5_linear_594_21046)"/>
<defs>
<linearGradient id="paint0_linear_594_21046" x1="5.36202" y1="26.8502" x2="1.28124" y2="15.2102" gradientUnits="userSpaceOnUse">
<stop offset="0.14" stop-color="#F1E813"/>
<stop offset="0.3" stop-color="#E6E418"/>
<stop offset="0.58" stop-color="#C9DA26"/>
<stop offset="0.89" stop-color="#A2CC39"/>
</linearGradient>
<linearGradient id="paint1_linear_594_21046" x1="5.66543" y1="5.3409" x2="15.9639" y2="1.4684" gradientUnits="userSpaceOnUse">
<stop offset="0.06" stop-color="#0FA7DF"/>
<stop offset="0.54" stop-color="#0098F8"/>
<stop offset="0.92" stop-color="#0290EA"/>
</linearGradient>
<linearGradient id="paint2_linear_594_21046" x1="14.7586" y1="29.7688" x2="26.3801" y2="27.1783" gradientUnits="userSpaceOnUse">
<stop offset="0.12" stop-color="#A2CC39"/>
<stop offset="0.28" stop-color="#86C239"/>
<stop offset="0.87" stop-color="#219F38"/>
</linearGradient>
<linearGradient id="paint3_linear_594_21046" x1="15.0255" y1="1.23763" x2="24.9714" y2="4.26616" gradientUnits="userSpaceOnUse">
<stop offset="0.06" stop-color="#0290EA"/>
<stop offset="0.79" stop-color="#0C89CA"/>
</linearGradient>
<linearGradient id="paint4_linear_594_21046" x1="4.996" y1="26.2839" x2="15.832" y2="30.2799" gradientUnits="userSpaceOnUse">
<stop offset="0.13" stop-color="#F1E813"/>
<stop offset="0.3" stop-color="#EAE616"/>
<stop offset="0.53" stop-color="#D8DF1F"/>
<stop offset="0.8" stop-color="#BAD52D"/>
<stop offset="0.98" stop-color="#A2CC39"/>
</linearGradient>
<linearGradient id="paint5_linear_594_21046" x1="1.3588" y1="16.4468" x2="5.79629" y2="5.05654" gradientUnits="userSpaceOnUse">
<stop offset="0.07" stop-color="#A2CC39"/>
<stop offset="0.26" stop-color="#81C45E"/>
<stop offset="0.92" stop-color="#0FA7DF"/>
</linearGradient>
</defs>
</svg>
