<svg width="48" height="48" viewBox="0 0 48 48" fill="none" xmlns="http://www.w3.org/2000/svg">
<path d="M0 24C0 10.7452 10.7452 0 24 0C37.2548 0 48 10.7452 48 24C48 37.2548 37.2548 48 24 48C10.7452 48 0 37.2548 0 24Z" fill="#333333"/>
<g clip-path="url(#clip0_594_10731)">
<path d="M30.35 20.9388C30.9573 20.9388 31.2609 20.9388 31.4886 21.0663C31.6495 21.1564 31.7824 21.2892 31.8725 21.4502C32 21.6778 32 21.9815 32 22.5888V25.4112C32 26.0185 32 26.3222 31.8725 26.5498C31.7824 26.7108 31.6495 26.8436 31.4886 26.9337C31.2609 27.0612 30.9573 27.0612 30.35 27.0612H23.9192V32L16 24L23.9192 16V20.9388H30.35Z" fill="white"/>
</g>
<defs>
<clipPath id="clip0_594_10731">
<rect width="16" height="16" fill="white" transform="translate(16 16)"/>
</clipPath>
</defs>
</svg>
