<svg width="16" height="16" viewBox="0 0 16 16" fill="none" xmlns="http://www.w3.org/2000/svg">
<path fill-rule="evenodd" clip-rule="evenodd" d="M0 8C0 5.87827 0.842855 3.84344 2.34315 2.34315C3.84344 0.842855 5.87827 0 8 0C10.1217 0 12.1566 0.842855 13.6569 2.34315C15.1571 3.84344 16 5.87827 16 8C16 10.1217 15.1571 12.1566 13.6569 13.6569C12.1566 15.1571 10.1217 16 8 16C5.87827 16 3.84344 15.1571 2.34315 13.6569C0.842855 12.1566 0 10.1217 0 8ZM8.70588 3.29412C8.70588 3.10691 8.63151 2.92736 8.49913 2.79498C8.36676 2.6626 8.18721 2.58824 8 2.58824C7.81279 2.58824 7.63324 2.6626 7.50087 2.79498C7.36849 2.92736 7.29412 3.10691 7.29412 3.29412V8C7.29407 8.11968 7.32445 8.2374 7.3824 8.34211C7.44035 8.44682 7.52398 8.53508 7.62541 8.59859L10.4489 10.3633C10.6077 10.4626 10.7994 10.4949 10.9819 10.4528C11.0723 10.432 11.1577 10.3936 11.2332 10.3399C11.3087 10.2861 11.3729 10.2179 11.4221 10.1393C11.4713 10.0607 11.5045 9.97316 11.5199 9.88171C11.5353 9.79026 11.5325 9.69668 11.5117 9.60631C11.4909 9.51595 11.4525 9.43056 11.3987 9.35503C11.3449 9.2795 11.2767 9.21531 11.1981 9.16612L8.70588 7.60847V3.29412Z" fill="#A8CE45"/>
</svg>
