<svg width="320" height="369" viewBox="0 0 320 369" fill="none" xmlns="http://www.w3.org/2000/svg">
<path d="M281.6 0C295.041 0 301.762 0.000398633 306.896 2.61621C311.411 4.91717 315.083 8.5886 317.384 13.1045C320 18.2384 320 24.9592 320 38.4004V80.6006C310.816 82.8438 304 91.1252 304 101C304 110.875 310.816 119.155 320 121.398V330.6C320 344.041 320 350.762 317.384 355.896C315.083 360.411 311.411 364.083 306.896 366.384C303.914 367.903 300.398 368.539 295.341 368.806C292.148 361.279 284.691 356 276 356C267.235 356 259.725 361.371 256.579 369H237.421C234.275 361.371 226.765 356 218 356C209.235 356 201.725 361.371 198.579 369H179.421C176.275 361.371 168.765 356 160 356C151.235 356 143.725 361.371 140.579 369H121.421C118.275 361.371 110.765 356 102 356C93.2349 356 85.7253 361.371 82.5791 369H63.4209C60.2747 361.371 52.7651 356 44 356C35.3092 356 27.8509 361.279 24.6582 368.806C19.6017 368.539 16.0857 367.903 13.1045 366.384C8.5886 364.083 4.91717 360.411 2.61621 355.896C0.000398633 350.762 0 344.041 0 330.6V121.398C9.18371 119.155 16 110.875 16 101C16 91.1252 9.18382 82.8438 0 80.6006V38.4004C0 24.9592 0.000398633 18.2384 2.61621 13.1045C4.91717 8.5886 8.5886 4.91717 13.1045 2.61621C18.2384 0.000398633 24.9592 0 38.4004 0H281.6Z" fill="white"/>
</svg>
