<svg width="21" height="21" viewBox="0 0 21 21" fill="none" xmlns="http://www.w3.org/2000/svg">
<path fill-rule="evenodd" clip-rule="evenodd" d="M0.875 2.625C0.875 2.39294 0.967187 2.17038 1.13128 2.00628C1.29538 1.84219 1.51794 1.75 1.75 1.75H11.375C11.6071 1.75 11.8296 1.84219 11.9937 2.00628C12.1578 2.17038 12.25 2.39294 12.25 2.625V7H15.75C16.3245 7 16.8934 7.11316 17.4242 7.33303C17.955 7.55289 18.4373 7.87515 18.8436 8.28141C19.2498 8.68766 19.5721 9.16996 19.792 9.70076C20.0118 10.2316 20.125 10.8005 20.125 11.375V14.875C20.1251 15.4383 19.944 15.9867 19.6086 16.4392C19.2732 16.8917 18.8011 17.2243 18.2621 17.388C18.1016 17.9174 17.778 18.3825 17.3375 18.7171C16.8969 19.0516 16.362 19.2384 15.8089 19.2508C15.2559 19.2632 14.7131 19.1006 14.258 18.7862C13.8029 18.4718 13.4587 18.0216 13.2746 17.5H7.72625C7.54217 18.0216 7.19801 18.4718 6.74289 18.7862C6.28777 19.1006 5.74495 19.2632 5.19193 19.2508C4.6389 19.2384 4.10393 19.0516 3.66338 18.7171C3.22284 18.3825 2.89923 17.9174 2.73875 17.388C2.19961 17.2245 1.72736 16.8919 1.39175 16.4394C1.05614 15.9869 0.874967 15.4384 0.875 14.875V11.375H6.125C6.35706 11.375 6.57962 11.2828 6.74372 11.1187C6.90781 10.9546 7 10.7321 7 10.5C7 10.2679 6.90781 10.0454 6.74372 9.88128C6.57962 9.71719 6.35706 9.625 6.125 9.625H0.875V7.875H4.375C4.60706 7.875 4.82962 7.78281 4.99372 7.61872C5.15781 7.45462 5.25 7.23206 5.25 7C5.25 6.76794 5.15781 6.54538 4.99372 6.38128C4.82962 6.21719 4.60706 6.125 4.375 6.125H0.875V2.625ZM12.25 15.75H13.2746C13.4476 15.2604 13.7619 14.8331 14.1778 14.5221C14.5937 14.2112 15.0924 14.0306 15.611 14.0031C16.1295 13.9757 16.6445 14.1026 17.0909 14.368C17.5373 14.6333 17.8949 15.025 18.1186 15.4936C18.2 15.4125 18.2645 15.3161 18.3085 15.2099C18.3525 15.1037 18.3751 14.9899 18.375 14.875V11.375C18.375 10.6788 18.0984 10.0111 17.6062 9.51884C17.1139 9.02656 16.4462 8.75 15.75 8.75H12.25V15.75ZM6.125 16.625C6.125 16.3929 6.03281 16.1704 5.86872 16.0063C5.70462 15.8422 5.48206 15.75 5.25 15.75C5.01794 15.75 4.79538 15.8422 4.63128 16.0063C4.46719 16.1704 4.375 16.3929 4.375 16.625C4.375 16.8571 4.46719 17.0796 4.63128 17.2437C4.79538 17.4078 5.01794 17.5 5.25 17.5C5.48206 17.5 5.70462 17.4078 5.86872 17.2437C6.03281 17.0796 6.125 16.8571 6.125 16.625ZM15.1314 16.0064C15.0499 16.0874 14.9853 16.1838 14.9413 16.29C14.8973 16.3962 14.8747 16.5101 14.875 16.625C14.875 16.8274 14.9451 17.0236 15.0735 17.1801C15.2019 17.3367 15.3806 17.4438 15.5791 17.4833C15.7777 17.5229 15.9838 17.4923 16.1623 17.3969C16.3409 17.3016 16.4808 17.1472 16.5583 16.9602C16.6358 16.7732 16.6461 16.5651 16.5874 16.3713C16.5286 16.1776 16.4045 16.0102 16.2362 15.8977C16.0679 15.7852 15.8658 15.7346 15.6644 15.7544C15.4629 15.7742 15.2745 15.8633 15.1314 16.0064Z" fill="#1D1D1D"/>
</svg>
